<?xml version="1.0" encoding="utf-8"?>
<!-- Generator: Adobe Illustrator 22.0.0, SVG Export Plug-In . SVG Version: 6.00 Build 0)  -->
<svg version="1.1" id="Layer_1" xmlns="http://www.w3.org/2000/svg" xmlns:xlink="http://www.w3.org/1999/xlink" x="0px" y="0px"
	 viewBox="0 0 1885 923" style="enable-background:new 0 0 1885 923;" xml:space="preserve">
<style type="text/css">
	.st0{fill:#7B64AC;}
	.st1{fill:#0B0B0B;}
</style>
<path class="st0" d="M1471.3,255L1471.3,255c-7.1-7.1-18.6-7.1-25.7,0l0,0c-6.4,6.4-7.1,18.4-1.7,25.7l14.5,21l14.5-21
	C1478.4,273.5,1477.7,261.4,1471.3,255z"/>
<path class="st0" d="M1126.2,333.1L1126.2,333.1c-7.1-7.1-18.6-7.1-25.7,0l0,0c-6.4,6.4-7.1,18.4-1.7,25.7l14.5,21l14.5-21
	C1133.3,351.5,1132.6,339.5,1126.2,333.1z"/>
<path class="st0" d="M625.2,489.3L625.2,489.3c-7.1-7.1-18.6-7.1-25.7,0l0,0c-6.4,6.4-7.1,18.4-1.7,25.7l14.5,21l14.5-21
	C632.3,507.8,631.6,495.7,625.2,489.3z"/>
<path class="st1" d="M1074.3,604.7L1074.3,604.7c-7.1-7.1-18.6-7.1-25.7,0l0,0c-6.4,6.4-7.1,18.4-1.7,25.7l14.5,21l14.5-21
	C1081.4,623.2,1080.7,611.1,1074.3,604.7z"/>
</svg>
